<svg viewBox="0 0 196.1 138.72"><title>fish-top</title><g id="Layer_2" data-name="Layer 2"><g id="Layer_1-2" data-name="Layer 1"><path d="M190.05,79.56c-1.43-.4-2.05-1.07-1.69-2.35,1.39-5-.51-9.11-3.94-12.6-2.06-2.1-4.35-4-6.73-6.13-.24.78-.43,1.35-.59,1.93-2.32,8.5-6.67,15.68-13.73,21.09-1.67,1.28-2.32,1.19-3.58-.29,3.86-7.18,4.57-14.44,1-21.8-1.23-2.56-3.21-4.75-4.77-7.16-1.17-1.81-2.3-3.65-3.31-5.55a15,15,0,0,1-.95-11.64c.24-.83.56-1.64,1-2.91-2.2.23-4.11.45-6,.62C134.7,33.83,124.66,39.65,115,46.28a5.36,5.36,0,0,0-.73.61,2.46,2.46,0,0,0-.28.67c1.74.29,3.42.72,5.12.84a40.39,40.39,0,0,1,15.29,4.44,26.46,26.46,0,0,1,8.75,7c2.52,3.09,2.44,5.47-.5,8.18a72.19,72.19,0,0,1-21.13,13.85c-4.87,2-9.69,4.17-14.91,5.18a3.29,3.29,0,0,0-.78.44,56.09,56.09,0,0,1-2.07,16.46,53.74,53.74,0,0,1-6.85,15.29,7.59,7.59,0,0,0,6.8-2.16c2.37-2.15,4.55-4.49,6.89-6.67a109.08,109.08,0,0,1,8.22-7.3c2.12-1.62,4.72-2.55,7.42-1.25s4.69,4.12,3.5,7.45a4.08,4.08,0,0,1-2.66,2.54c-.82.31-1.61.34-2.08-.55a1.6,1.6,0,0,1,.54-2.29c.8-.57,1.53-1.24,2.27-1.85-1.83-2.56-3.85-3.17-6.38-1.55a58.64,58.64,0,0,0-7.3,5.78c-2.85,2.56-5.55,5.3-8.25,8a11,11,0,0,1-9.62,3.26c-2-.25-4.85,2-4.91,4.09a8.28,8.28,0,0,1-2.55,5.52c-3.84,4.18-8.78,6-14.29,6.41a26.86,26.86,0,0,1-5.94-.32,9,9,0,0,1-6.37-3.85,2.31,2.31,0,0,0-2.64-1,16.12,16.12,0,0,1-11.78-3c-4.36-3-8.74-5.9-13.12-8.85a5.55,5.55,0,0,0-4.79-.92c-1.35.4-2.54.94-2.39,2.76a6,6,0,0,1-.57,2,4.66,4.66,0,0,1-.08-7.67,6.42,6.42,0,0,1,5.28-.82c3.27.66,5.69,2.84,8.31,4.64,3,2.08,5.92,4.35,9,6.39a12.59,12.59,0,0,0,10.3,1.79c-1.32-1.33-2.34-2.49-3.49-3.5a63,63,0,0,1-12.89-15.67,49.3,49.3,0,0,1-6.8-21c-.13-1.59-.34-3.18-.53-4.9-1.87-1-3.79-1.92-5.66-2.95-10.94-6-20.21-13.93-27.11-24.44-1-1.53-1.78-3.21-2.76-4.77A2,2,0,0,1,1,49.56a10.55,10.55,0,0,1,2.24-1.38,50.48,50.48,0,0,1,30.75-3,45.57,45.57,0,0,1,5.41,1.77C41.7,43.5,43.94,40,46.32,36.66A150.58,150.58,0,0,1,57.86,21.75,48.74,48.74,0,0,1,71.23,11.46c2.66-1.42,5.13-3.3,7.92-4.4C85.38,4.6,91.66,2.3,98.38,1.34A91.18,91.18,0,0,1,114.11,0c8.11.26,16.1,1.2,23.7,4.21,2.58,1,5,2.45,7.52,3.65,1.87.9,3.76,1.74,5.63,2.63a55.73,55.73,0,0,1,13.52,9,20.3,20.3,0,0,0,6.74,3.69,57.17,57.17,0,0,1,17.14,10.4c4.1,3.58,6,8.45,6.94,13.65a48.05,48.05,0,0,1-2.1,25c-.61,1.73-1.21,3.47-1.9,5.17A18.4,18.4,0,0,1,190.05,79.56ZM74.82,74.43a5.24,5.24,0,0,1-3.64-3.19,18.65,18.65,0,0,1-1.94-10.89C70.29,52.73,75.54,44.9,83.67,43A10.81,10.81,0,0,0,91,37.71a12.23,12.23,0,0,1,9-6.45,27.19,27.19,0,0,1,4.51-.18c2.46.07,2.56.05,3.72-2.5-1-.2-2-.42-3-.58a16.49,16.49,0,0,1-7.45-3.08,8.53,8.53,0,0,0-8.76-1.24c.21,6.34-2.5,10.83-8.17,13.49-1.59.75-3.2,1.46-4.79,2.21-3.84,1.82-7.6,3.76-10.28,7.24C61.12,52.7,57.39,59.23,56.43,67c-.2,1.58-.17,3.19-.24,4.79A23.6,23.6,0,0,0,58,82.57a40.52,40.52,0,0,0,2.46,4.21c1.92-.46,3.85-.88,5.74-1.42a6.07,6.07,0,0,0,1.62-1c1.85-1.25,3.71-2.5,5.54-3.78,1.46-1,2.89-2.1,4.2-3l-2.81-3.16c1.42,1.22,2.94,2.34,4.92,1.85,2.52-.63,5-1.43,7.48-2.25a9.48,9.48,0,0,0,2-1.23c-1.37,1,.51,1.54.53,2.58-8.15-.67-13.5,4.47-19.75,8.74,3.94,1.51,5.15,4.36,5.29,7.86,0,.56.09,1.11.08,1.67a8.55,8.55,0,0,0,2.2,5.91,4.31,4.31,0,0,1,.53,1.45l0,0a9.4,9.4,0,0,1-3.56-7.27A23.45,23.45,0,0,0,74,89.12c-1-4-4-5-7.47-3-3.09,1.79-6.36,2.46-9.79.78A9.77,9.77,0,0,0,54.24,86a4.29,4.29,0,0,0-2.49,0,10.79,10.79,0,0,0-5,4.48C48.65,92,50.5,93.2,52.2,94.63c3.68,3.08,4.16,5.27,2.14,9.67a6.27,6.27,0,0,0-.47,4.17c.79,3.55,1.47,7.12,2.22,10.81a26.25,26.25,0,0,1,11.64,1.56c4.94,1.64,9.21.19,13.45-2.27a7.66,7.66,0,0,0,4.11-7.27,11,11,0,0,0-3.11-7.43,5.72,5.72,0,0,1,3.19,3.6c1.24,3.29,1.32,8.46-2.39,10.84a42.17,42.17,0,0,1-3.71,2.21,15,15,0,0,1-11.61,1.1c-2.44-.73-5-1.1-7.49-1.61a8.21,8.21,0,0,0-4.76.82c1.49,1.45,2.75,2.62,3.94,3.86,1.56,1.62,3.67,2.7,4.55,5,.28.71,1.5,1.07,2.32,1.54a17,17,0,0,0,1.57.7l-.15.43-3.67-1c-.08,1.41.24,2.5,1.29,3.07a10.92,10.92,0,0,0,3.56,1.3,21.48,21.48,0,0,0,12.79-2.25A13.41,13.41,0,0,0,87,128.72c-1.29,0-1.86,1.65-3.17.84,2.76-3.22,5.58-6.23,8.06-9.49a53.08,53.08,0,0,0,10.67-30.26c.23-4.53-1.75-7.78-5.18-10.4A18.79,18.79,0,0,1,96,78.07a1.85,1.85,0,0,1,2.88.16c1.44,1.49,2.87,3,4.21,4.59a2,2,0,0,0,2.21,1c8.19-1.79,15.68-5.34,23-9.29a54.84,54.84,0,0,0,10.42-7.64c.89-.79,1.73-1.65,2.59-2.48s1.06-2,0-2.88c-1.86-1.59-3.75-3.14-5.67-4.75-4.82,4.24-8.78,8.95-14.45,11.61a2,2,0,0,1,.63-1.55c1.7-1.31,3.57-2.43,5.18-3.85,2.36-2.08,4.56-4.35,7-6.77a40,40,0,0,0-11.42-3.94A4,4,0,0,0,118.08,54a37.6,37.6,0,0,1-3.9,4.55c-1.12,1.08-2.1,2.51-4.07,2.56,2.54-3,5.82-5.45,7.62-9.4-.93-.12-1.69-.27-2.46-.32a20.2,20.2,0,0,1-4.06-.17,3.3,3.3,0,0,0-3.74,1.39c-1.79,2.24-3.64,4.45-5.26,6.82C99.43,63.49,96.81,67.68,94,72l-3.22-1.51-1.52,2c1.13-1.71,1-3.24-.1-5a13.54,13.54,0,0,1,2.51-16.65,42.31,42.31,0,0,1,5.74-4.27,12.45,12.45,0,0,0,4.86-5.46c1.27-2.9,2.3-5.9,3.46-9a4.54,4.54,0,0,0-.86-.28c-5.38-.61-9.9,1-12.73,5.72a13.14,13.14,0,0,1-8.39,6.16c-9.67,2.62-15.08,12.65-13.67,21.94C70.57,69.09,71.6,72.41,74.82,74.43Zm115.62-5.9.79-.08c.35-2.26.76-4.51,1-6.77a37.84,37.84,0,0,0-2.88-20.85,15.7,15.7,0,0,0-3-4.53c-5.88-5.89-13.06-9.61-20.92-12.13A8.31,8.31,0,0,1,163.16,23c-1.27-.92-2.47-1.95-3.41-2.7-2,.81-3.64,1.42-5.23,2.1a14.43,14.43,0,0,1-16.69-4.06c-2-2.44-3.7-2.87-6.71-1.8-3.3,1.18-5.7,3.56-8.69,6.14a36.78,36.78,0,0,1,16.44,2.47,37.17,37.17,0,0,0,12.31,2.68,10.79,10.79,0,0,1,4.3,1.28c1.93,1,2,1.32.84,3.12a13.48,13.48,0,0,0-1.63,10.14c.74,3.73,2.91,6.74,5.21,9.59,5,6.23,7.42,13.13,6.18,21.15a5.34,5.34,0,0,0,.07,1.11c.3-.08.51-.07.58-.17a27.36,27.36,0,0,0,1.72-2.29c4.88-7.69,8.18-15.72,5.38-25.06-.12-.41.17-.94.31-1.59,1.89,1.19,1.65,2.95,1.91,4.44A6.61,6.61,0,0,0,177.51,53c1,1.19,1.84,2.56,2.79,3.81a33.51,33.51,0,0,0,2.29,2.76C185.32,62.46,188.65,64.8,190.44,68.53ZM134.53,14.9l.29-.62c-2.31-2.18-4.46-4.55-6.95-6.51a15.15,15.15,0,0,0-8.74-3.49c-3.43-.15-6.88.11-10.28-.22-3.58-.35-6.63,1.38-9.93,2A95.35,95.35,0,0,0,86.14,10,66.31,66.31,0,0,0,79.9,12.9c.66,2,1.06,3.7,1.77,5.28,1.61,3.54,4,4.68,7.91,4.07,3.26-.51,6.32-.13,9,2.08a16,16,0,0,0,7.24,3,9.51,9.51,0,0,0,6.7-1,29.28,29.28,0,0,1,4-1.63,19.39,19.39,0,0,0,5.83-3.18c2.63-2.16,5.22-4.49,8.58-5.54C132.1,15.51,133.32,15.23,134.53,14.9ZM4,50.46C5.71,56.94,18,70.8,25.35,74.64l2-5a6.45,6.45,0,0,1-1-.59c-2.92-2.47-5.81-5-8.75-7.44-.8-.67-1.11-1.25-.15-2.4,3.57,3.55,7,7.14,11.24,9.65A12.24,12.24,0,0,1,38.5,67.4c.5-3.76,1-7.32,1.46-10.86s-.72-6.06-4.07-7.69a22.53,22.53,0,0,0-8.33-2.05,8.44,8.44,0,0,0-1.74.25A18.06,18.06,0,0,0,26.48,50c1.23,2.93,2.57,5.83,3.86,8.74.29.64,1.18,1.19.43,2-.24,0-.47,0-.54,0a10.55,10.55,0,0,1-.89-1.11,40.46,40.46,0,0,1-4.82-10.9c-.29-1-.34-2.15-1.77-2.2a32.89,32.89,0,0,0-12.44,1.76c.77,1.5,1.45,2.84,2.14,4.17s2.26,2.08,2.11,4.36c-3-2.42-4.17-5.58-6.2-8.16ZM47.1,63.22a34.7,34.7,0,0,1-2.84,2.33c-1.11.76-2.36,1.3-3.49,2A1.7,1.7,0,0,0,40,68.63,53.63,53.63,0,0,0,40,79.68L48.84,81C48.24,74.89,47.66,68.9,47.1,63.22Zm3.3-24.61c-6.83,7.45-10.27,19.61-9.87,27.89a3.13,3.13,0,0,0,1.14-.2c3.16-2.08,5.71-4.51,5.95-8.69.2-3.41.64-6.82,1.13-10.2C49.18,44.51,49.82,41.65,50.4,38.61Zm-18,34.33-4-2.18c-2.7,2.85-2.61,4.35.23,6.46.19.14.37.31.57.44A46.89,46.89,0,0,0,38,82.25c.16-4.77.31-9.17.45-13.47C35,67,31.73,67.37,29.9,69.7,30.23,71,32.66,70.66,32.35,72.94Zm7.76,9.13c0,1.24-.07,2.35,0,3.45A2.23,2.23,0,0,0,40.76,87c1.57,1.17,3.23,2.23,4.76,3.26l6.09-5.32C49.49,82,43.47,80.47,40.11,82.07Z"/><path d="M86.21,94A13.81,13.81,0,0,1,88,90.44C89.26,89,91.11,88,93.13,88.81a5.47,5.47,0,0,1,3.16,5,6.63,6.63,0,0,1-3.59,6.53,3.33,3.33,0,0,1-2.71.1C87.71,99.33,86.41,97.38,86.21,94Z"/><path d="M115.53,72c-1.88,2.19-3.92,3.25-5.62,3C110.75,73.71,113.32,72.27,115.53,72Z"/><path d="M78,100.94c1.33.3,1.33.3,2.4,2-.78-.69-1.55-1.38-2.34-2.06Z"/><path d="M173.66,42.6l-2.86-4.51C172.7,38.39,173.64,39.76,173.66,42.6Z"/></g></g></svg>